<svg xmlns="http://www.w3.org/2000/svg" width="512" height="512" viewBox="0 0 512 512" version="1.1">
	<path d="M 189.500 2.353 C 186.750 3.636, 182.869 6.496, 180.875 8.708 C 174.542 15.733, 167.586 37.363, 166.169 54.431 L 165.500 62.500 156 62.259 C 137.439 61.788, 103.924 54.138, 76 43.999 C 69.675 41.703, 63.559 39.599, 62.408 39.325 C 60.022 38.757, 57 41.279, 57 43.839 C 57 46.232, 68.816 65.811, 75.715 74.849 C 78.897 79.018, 85.678 86.791, 90.784 92.122 L 100.067 101.815 93.284 104.062 C 89.553 105.299, 83.028 107.792, 78.784 109.603 C 59.169 117.972, 44.858 131.577, 46.303 140.480 C 46.744 143.194, 46.055 144.521, 41.328 150.065 C 28.527 165.080, 16.267 186.588, 9.677 205.592 C 0.278 232.695, -2.036 260.420, 2.501 291.554 C 12.893 362.867, 48.398 410.630, 108.625 434.318 C 125.470 440.943, 150.713 446.716, 172.397 448.904 C 182.221 449.894, 182.317 449.930, 185.291 453.701 C 186.939 455.790, 192.470 461.616, 197.583 466.646 C 221.560 490.235, 253.223 504.087, 297 510.139 C 311.586 512.156, 353.538 511.866, 368.500 509.645 C 411.566 503.252, 441.615 489.521, 466.058 465.064 C 482.425 448.687, 493.629 430.257, 501.444 406.852 C 510.322 380.263, 514.875 338.928, 510.087 328.384 C 509.059 326.120, 506.517 322.970, 504.438 321.384 L 500.657 318.500 449.732 318.223 C 406.194 317.987, 398.886 317.740, 399.352 316.525 C 400.512 313.501, 402.986 299.954, 404.561 288 C 406.817 270.874, 406.076 241.754, 403.021 227.500 C 396.645 197.746, 381.646 167.845, 362.890 147.497 C 360.536 144.943, 359.335 142.911, 359.954 142.529 C 361.585 141.520, 361.188 137.285, 359.081 133.210 C 354.145 123.669, 339.027 113.323, 319.327 106.005 L 307.226 101.510 316.394 91.957 C 332.807 74.857, 350.939 47.878, 349.601 42.548 C 348.584 38.494, 345.850 38.641, 332.527 43.471 C 306.895 52.762, 279.372 59.642, 258.500 61.977 C 243.471 63.658, 221.574 62.907, 219.299 60.633 C 217.977 59.310, 221.183 44.338, 225.618 31.130 C 230.761 15.811, 230.723 13.873, 225.159 8.089 C 217.518 0.145, 200.200 -2.641, 189.500 2.353 M 29.455 267.455 C 26.132 270.777, 26.064 276.772, 29.314 279.826 C 34.307 284.516, 44 280.988, 44 274.480 C 44 266.204, 35.035 261.874, 29.455 267.455 M 34.323 297.586 C 32.023 299.887, 31.797 300.740, 32.272 305.336 C 33.075 313.092, 40.357 334.416, 45.963 345.427 C 59.018 371.068, 79.237 391.127, 104.947 403.940 C 117.911 410.401, 121.468 411.463, 125.105 409.957 C 129.260 408.236, 131.381 403.391, 129.874 399.067 C 128.938 396.382, 127.020 395.097, 115.646 389.533 C 81.866 373.009, 62.409 349.121, 51.449 310.719 C 49.135 302.612, 47.258 297.911, 45.870 296.750 C 42.721 294.115, 37.410 294.499, 34.323 297.586 M 232.298 391.298 C 222.495 401.101, 221 403.030, 221 405.875 C 221 410.092, 225.640 415, 229.627 415 C 233.689 415, 256 392.689, 256 388.627 C 256 384.640, 251.092 380, 246.875 380 C 244.030 380, 242.101 381.495, 232.298 391.298 M 409.356 382.370 C 407.269 384.166, 406.600 385.642, 406.600 388.453 C 406.600 391.861, 407.544 393.099, 418.134 403.583 C 430.875 416.194, 432.543 416.938, 437.923 412.411 C 440.314 410.400, 441 409.016, 441 406.209 C 441 402.938, 439.930 401.526, 429.702 391.298 C 417.149 378.745, 414.779 377.705, 409.356 382.370 M 268.885 407.888 C 267.573 408.927, 264.073 414.713, 261.106 420.747 C 257.008 429.081, 255.870 432.345, 256.368 434.331 C 257.852 440.244, 264.850 442.895, 269.807 439.422 C 272.944 437.226, 282.008 418.849, 281.968 414.768 C 281.899 407.610, 274.290 403.609, 268.885 407.888 M 384.500 407.208 C 378.501 410.648, 378.606 415.258, 384.970 427.941 C 387.704 433.388, 390.954 438.555, 392.193 439.422 C 397.150 442.895, 404.148 440.244, 405.632 434.331 C 406.130 432.345, 404.992 429.081, 400.894 420.747 C 394.038 406.803, 390.418 403.814, 384.500 407.208 M 303.306 417.413 C 300.506 419.822, 300.500 419.854, 300.500 432.500 C 300.500 445.146, 300.506 445.178, 303.306 447.587 C 304.871 448.933, 307.388 450, 309 450 C 310.612 450, 313.129 448.933, 314.694 447.587 C 317.494 445.178, 317.500 445.146, 317.500 432.500 C 317.500 419.854, 317.494 419.822, 314.694 417.413 C 313.129 416.067, 310.612 415, 309 415 C 307.388 415, 304.871 416.067, 303.306 417.413 M 347.306 417.413 C 344.506 419.820, 344.500 419.852, 344.500 432.497 C 344.500 445.142, 344.506 445.175, 347.306 447.585 C 351.219 450.953, 355.410 450.744, 359.161 446.993 L 362.167 443.987 361.834 431.904 C 361.507 420.086, 361.439 419.770, 358.694 417.411 C 355.108 414.329, 350.891 414.330, 347.306 417.413" stroke="none" fill="black" fill-rule="evenodd"/>
</svg>